<?xml version="1.0" encoding="utf-8"?>
<!-- Generator: Adobe Illustrator 25.0.1, SVG Export Plug-In . SVG Version: 6.00 Build 0)  -->
<svg version="1.0" id="katman_1" xmlns="http://www.w3.org/2000/svg" xmlns:xlink="http://www.w3.org/1999/xlink" x="0px" y="0px"
	 viewBox="0 0 382.2 238.4" style="enable-background:new 0 0 382.2 238.4;" xml:space="preserve">
<style type="text/css">
	.st0{clip-path:url(#SVGID_2_);}
	.st1{fill:#FF0000;}
</style>
<g>
	<defs>
		<rect id="SVGID_1_" x="25.6" y="82.7" width="330.4" height="72.3"/>
	</defs>
	<clipPath id="SVGID_2_">
		<use xlink:href="#SVGID_1_"  style="overflow:visible;"/>
	</clipPath>
	<g class="st0">
		<path class="st1" d="M262.4,117.1l2.2-14.8c-4.8-2.6-11.5-4.8-19.2-4.8c-15.2,0-23.5,8-23.5,18.3c0,10.9,9.9,14.1,16.7,16.4
			c4.1,1.5,7.3,2.6,7.3,4.8c0,1.8-2.1,3.5-6.3,3.5c-6.1,0-14.6-3.5-20.1-8.4l-2.4,16.2c5.7,4.2,13.9,6.7,22.6,6.7
			c15.1,0,23.7-7.4,23.7-17.9c0-11-9.3-14.7-16.8-17.4c-4.2-1.5-7.2-2.4-7.2-4.5c0-1.8,2.1-3.2,6.4-3.2
			C252,112,258.4,114.9,262.4,117.1z"/>
		<path class="st1" d="M69.8,99l-1,4.8c-2.9-5.7-11.5-6.3-16.1-6.3c-14.4,0-27,13.8-27,32.7c0,15.2,9.2,24.8,20.7,24.8
			c6.4,0,11.9-1.5,16.4-6.8l-1.2,5.3h2.6h15.5L88,98.9H69.8V99z M54.7,136.8c-6.2,0-10.9-4.8-10.9-10.9c0-6,4.8-10.9,10.9-10.9
			c6,0,10.8,4.9,10.8,10.9C65.5,132,60.7,136.8,54.7,136.8z"/>
		<path class="st1" d="M203.3,99h-1.9l-1,4.8c-2.9-5.7-11.5-6.3-16.1-6.3c-14.4,0-27,13.8-27,32.7c0,15.2,9.2,24.8,20.7,24.8
			c6.4,0,11.9-1.5,16.4-6.8l-1.2,5.3h2.6h15.5l8.3-54.6h-16.3V99z M186.3,136.8c-6.2,0-10.9-4.8-10.9-10.9c0-6,4.8-10.9,10.9-10.9
			c6,0,10.8,4.9,10.8,10.9C197.2,132,192.3,136.8,186.3,136.8z"/>
		<path class="st1" d="M339.7,99h-1.9l-1,4.8c-2.9-5.7-11.5-6.3-16.1-6.3c-14.4,0-27,13.8-27,32.7c0,15.2,9.2,24.8,20.7,24.8
			c6.4,0,11.9-1.5,16.4-6.8l-1.2,5.3h2.6h15.5l8.3-54.6h-16.3V99z M322.7,136.8c-6.2,0-10.9-4.8-10.9-10.9c0-6,4.8-10.9,10.9-10.9
			c6,0,10.8,4.9,10.8,10.9C333.5,132,328.7,136.8,322.7,136.8z"/>
		<path class="st1" d="M105.5,101c5,0,9.1-4.1,9.1-9.1s-4.1-9.1-9.1-9.1c-5,0-9.1,4.1-9.1,9.1S100.5,101,105.5,101z"/>
		<path class="st1" d="M105.4,104.5c-3.9,0-7.4-1.8-9.7-4.5l-8.1,53.5h18.2l7.9-52C111.4,103.4,108.6,104.5,105.4,104.5z"/>
		<path class="st1" d="M148,117c5,0,9.1-4.1,9.1-9.1c0-5-4.1-9.1-9.1-9.1s-9.1,4.1-9.1,9.1C138.9,112.9,143,117,148,117z"/>
		<path class="st1" d="M135.3,107.9c0-3.5,1.4-6.7,3.7-9h-17.1l-8.3,54.6h18.2l5.8-38.4C136.1,113.1,135.3,110.6,135.3,107.9z"/>
		<path class="st1" d="M284.2,100.9c5,0,9.1-4.1,9.1-9.1c0-5-4.1-9.1-9.1-9.1s-9.1,4.1-9.1,9.1C275.1,96.8,279.2,100.9,284.2,100.9z
			"/>
		<path class="st1" d="M284.2,104.5c-4,0-7.6-1.9-10-4.8l-8.2,53.8h18.2l7.9-51.8C289.9,103.5,287.2,104.5,284.2,104.5z"/>
	</g>
</g>
</svg>
